<svg width="43" height="31" viewBox="0 0 43 31" fill="none" xmlns="http://www.w3.org/2000/svg">
<g clip-path="url(#clip0_2_2)">
<path d="M29.4263 2.27795C31.3087 3.46645 33.0922 4.75399 34.7765 6.23961C36.659 7.82428 38.2442 9.40894 40.0276 10.9936C41.1175 11.885 42.1083 12.9744 42.5046 14.1629C43.5945 16.738 42.7028 19.7093 41.6129 22.1853C40.3249 24.8594 38.6405 27.5335 36.1636 29.1182C32.1014 31.4952 27.1475 30.5048 22.4908 30.8019C20.7074 30.901 18.8249 31.099 16.9424 30.8019C12.9793 30.3067 9.61059 27.7316 6.44009 25.2556C5.05299 24.1661 3.76497 23.0767 2.37788 22.0863C1.88248 21.6901 1.28801 21.2939 0.891702 20.6006C0.594467 20.0064 0.297232 19.2141 0.099075 18.5208C-0.693552 13.1725 1.88248 7.32907 6.34101 4.15974C12.4839 -0.297128 22.788 -1.58467 29.4263 2.27795Z" fill="#AFBBA3"/>
</g>
<defs>
<clipPath id="clip0_2_2">
<rect width="43" height="31" fill="white"/>
</clipPath>
</defs>
</svg>
