<?xml version="1.0" encoding="utf-8"?>
<!-- Generator: Adobe Illustrator 24.1.2, SVG Export Plug-In . SVG Version: 6.00 Build 0)  -->
<svg version="1.1" id="Layer_1" xmlns="http://www.w3.org/2000/svg" xmlns:xlink="http://www.w3.org/1999/xlink" x="0px" y="0px"
	 viewBox="0 0 396.1 204.2" style="enable-background:new 0 0 396.1 204.2;" xml:space="preserve">
<style type="text/css">
	.st0{fill:none;stroke:#000000;stroke-width:0.5;stroke-miterlimit:10;}
	.st1{fill:none;stroke:#000000;stroke-width:0.5;stroke-miterlimit:10;stroke-dasharray:11.6386,11.6386;}
	.st2{fill:none;stroke:#000000;stroke-width:0.5;stroke-miterlimit:10;stroke-dasharray:11.3087,11.3087;}
	.st3{fill:#A7A9AC;}
	.st4{fill:#E6E7E8;}
	.st5{fill:none;stroke:#000000;stroke-width:0.5;stroke-miterlimit:10;stroke-dasharray:11.9026,11.9026;}
	.st6{fill:none;stroke:#000000;stroke-width:0.5;stroke-miterlimit:10;stroke-dasharray:10.7165,10.7165;}
	.st7{font-family:'NotCourierSans';}
	.st8{font-size:12px;}
</style>
<g>
	<g>
		<polyline class="st0" points="396.1,198.2 396.1,204.2 390.1,204.2 		"/>
		<line class="st1" x1="378.4" y1="204.2" x2="11.8" y2="204.2"/>
		<polyline class="st0" points="6,204.2 0,204.2 0,198.2 		"/>
		<line class="st2" x1="0" y1="186.9" x2="0" y2="11.7"/>
		<polyline class="st0" points="0,6 0,0 6,0 		"/>
		<line class="st1" x1="17.6" y1="0" x2="384.3" y2="0"/>
		<polyline class="st0" points="390.1,0 396.1,0 396.1,6 		"/>
		<line class="st2" x1="396.1" y1="17.3" x2="396.1" y2="192.6"/>
	</g>
</g>
<rect x="21" y="21.1" class="st3" width="354.1" height="162.1"/>
<g>
	<rect x="47.5" y="43.7" class="st4" width="301.1" height="116.9"/>
</g>
<g>
	<rect x="79" y="69.3" class="st4" width="238.1" height="65.6"/>
	<g>
		<polyline class="st0" points="317.1,128.9 317.1,134.9 311.1,134.9 		"/>
		<line class="st5" x1="299.2" y1="134.9" x2="90.9" y2="134.9"/>
		<polyline class="st0" points="85,134.9 79,134.9 79,128.9 		"/>
		<line class="st6" x1="79" y1="118.2" x2="79" y2="80.7"/>
		<polyline class="st0" points="79,75.3 79,69.3 85,69.3 		"/>
		<line class="st5" x1="96.9" y1="69.3" x2="305.2" y2="69.3"/>
		<polyline class="st0" points="311.1,69.3 317.1,69.3 317.1,75.3 		"/>
		<line class="st6" x1="317.1" y1="86" x2="317.1" y2="123.6"/>
	</g>
</g>
<text transform="matrix(1 0 0 1 172.9125 105.2828)" class="st7 st8">content</text>
<text transform="matrix(1 0 0 1 172.9125 60.7327)" class="st7 st8">padding</text>
<text transform="matrix(1 0 0 1 176.5126 37.3973)" class="st7 st8">border</text>
<text transform="matrix(1 0 0 1 176.5126 14.062)" class="st7 st8">margin</text>
<g>
	<g>
		<polyline class="st0" points="820.6,424.7 820.6,430.7 814.6,430.7 		"/>
		<line class="st1" x1="803" y1="430.7" x2="436.4" y2="430.7"/>
		<polyline class="st0" points="430.5,430.7 424.5,430.7 424.5,424.7 		"/>
		<line class="st2" x1="424.5" y1="413.4" x2="424.5" y2="238.1"/>
		<polyline class="st0" points="424.5,232.5 424.5,226.5 430.5,226.5 		"/>
		<line class="st1" x1="442.2" y1="226.5" x2="808.8" y2="226.5"/>
		<polyline class="st0" points="814.6,226.5 820.6,226.5 820.6,232.5 		"/>
		<line class="st2" x1="820.6" y1="243.8" x2="820.6" y2="419.1"/>
	</g>
</g>
<rect x="445.5" y="247.6" class="st3" width="354.1" height="162.1"/>
<g>
	<rect x="472" y="270.1" class="st4" width="301.1" height="116.9"/>
</g>
<g>
	<rect x="503.5" y="295.8" class="st4" width="238.1" height="65.6"/>
	<g>
		<polyline class="st0" points="741.6,355.4 741.6,361.4 735.6,361.4 		"/>
		<line class="st5" x1="723.7" y1="361.4" x2="515.5" y2="361.4"/>
		<polyline class="st0" points="509.5,361.4 503.5,361.4 503.5,355.4 		"/>
		<line class="st6" x1="503.5" y1="344.7" x2="503.5" y2="307.2"/>
		<polyline class="st0" points="503.5,301.8 503.5,295.8 509.5,295.8 		"/>
		<line class="st5" x1="521.4" y1="295.8" x2="729.7" y2="295.8"/>
		<polyline class="st0" points="735.6,295.8 741.6,295.8 741.6,301.8 		"/>
		<line class="st6" x1="741.6" y1="312.5" x2="741.6" y2="350"/>
	</g>
</g>
<text transform="matrix(1 0 0 1 597.4516 331.7577)" class="st7 st8">content</text>
<text transform="matrix(1 0 0 1 597.4516 287.2076)" class="st7 st8">padding</text>
<text transform="matrix(1 0 0 1 601.0517 263.8722)" class="st7 st8">border</text>
<text transform="matrix(1 0 0 1 601.0517 240.5369)" class="st7 st8">margin</text>
<g>
	<g>
		<line class="st0" x1="445.8" y1="417.2" x2="616.7" y2="417.2"/>
		<g>
			<rect x="445.5" y="415.6" width="0.5" height="3.2"/>
		</g>
	</g>
</g>
<g>
	<g>
		<line class="st0" x1="799.4" y1="417.2" x2="627.7" y2="417.2"/>
		<g>
			<rect x="799.1" y="415.6" width="0.5" height="3.2"/>
		</g>
	</g>
</g>
<g>
	<g>
		<line class="st0" x1="807.4" y1="247.8" x2="807.4" y2="321.8"/>
		<g>
			<rect x="805.7" y="247.6" width="3.2" height="0.5"/>
		</g>
	</g>
</g>
<g>
	<g>
		<line class="st0" x1="807.4" y1="409.4" x2="807.4" y2="335.4"/>
		<g>
			<rect x="805.7" y="409.1" width="3.2" height="0.5"/>
		</g>
	</g>
</g>
<text transform="matrix(1 0 0 1 618.9756 419.8571)" class="st7 st8">w</text>
<text transform="matrix(1 0 0 1 803.7529 332.1652)" class="st7 st8">h</text>
<g>
	<g>
		<polyline class="st0" points="820.6,198.2 820.6,204.2 814.6,204.2 		"/>
		<line class="st1" x1="803" y1="204.2" x2="436.4" y2="204.2"/>
		<polyline class="st0" points="430.5,204.2 424.5,204.2 424.5,198.2 		"/>
		<line class="st2" x1="424.5" y1="186.9" x2="424.5" y2="11.7"/>
		<polyline class="st0" points="424.5,6 424.5,0 430.5,0 		"/>
		<line class="st1" x1="442.2" y1="0" x2="808.8" y2="0"/>
		<polyline class="st0" points="814.6,0 820.6,0 820.6,6 		"/>
		<line class="st2" x1="820.6" y1="17.3" x2="820.6" y2="192.6"/>
	</g>
</g>
<rect x="445.5" y="21.1" class="st3" width="354.1" height="162.1"/>
<g>
	<rect x="472" y="43.7" class="st4" width="301.1" height="116.9"/>
</g>
<g>
	<rect x="503.5" y="69.3" class="st4" width="238.1" height="65.6"/>
	<g>
		<polyline class="st0" points="741.6,128.9 741.6,134.9 735.6,134.9 		"/>
		<line class="st5" x1="723.7" y1="134.9" x2="515.5" y2="134.9"/>
		<polyline class="st0" points="509.5,134.9 503.5,134.9 503.5,128.9 		"/>
		<line class="st6" x1="503.5" y1="118.2" x2="503.5" y2="80.7"/>
		<polyline class="st0" points="503.5,75.3 503.5,69.3 509.5,69.3 		"/>
		<line class="st5" x1="521.4" y1="69.3" x2="729.7" y2="69.3"/>
		<polyline class="st0" points="735.6,69.3 741.6,69.3 741.6,75.3 		"/>
		<line class="st6" x1="741.6" y1="86" x2="741.6" y2="123.6"/>
	</g>
</g>
<text transform="matrix(1 0 0 1 597.4516 105.2827)" class="st7 st8">content</text>
<text transform="matrix(1 0 0 1 597.4516 60.7326)" class="st7 st8">padding</text>
<text transform="matrix(1 0 0 1 601.0517 37.3973)" class="st7 st8">border</text>
<text transform="matrix(1 0 0 1 601.0517 14.062)" class="st7 st8">margin</text>
<g>
	<g>
		<line class="st0" x1="503.8" y1="143.7" x2="741.4" y2="143.7"/>
		<g>
			<rect x="503.5" y="142" width="0.5" height="3.2"/>
		</g>
		<g>
			<rect x="741.1" y="142" width="0.5" height="3.2"/>
		</g>
	</g>
</g>
<rect x="618" y="138.5" class="st4" width="9.1" height="10.4"/>
<g>
	<g>
		<line class="st0" x1="749.4" y1="69.6" x2="749.4" y2="134.7"/>
		<g>
			<rect x="747.8" y="69.3" width="3.2" height="0.5"/>
		</g>
		<g>
			<rect x="747.8" y="134.4" width="3.2" height="0.5"/>
		</g>
	</g>
</g>
<text transform="matrix(1 0 0 1 618.9756 146.3128)" class="st7 st8">w</text>
<rect x="744.9" y="96.9" class="st4" width="9.1" height="10.4"/>
<text transform="matrix(1 0 0 1 745.8402 105.6902)" class="st7 st8">h</text>
</svg>
