<?xml version="1.0" encoding="utf-8"?>
<!-- Generator: Adobe Illustrator 23.1.1, SVG Export Plug-In . SVG Version: 6.00 Build 0)  -->
<svg version="1.1" id="Layer_1" xmlns="http://www.w3.org/2000/svg" xmlns:xlink="http://www.w3.org/1999/xlink" x="0px" y="0px"
	 viewBox="0 0 168.8 45" style="enable-background:new 0 0 168.8 45;" xml:space="preserve">
<g>
	<g>
		<path d="M1.6,32.5c-0.2,0-0.4,0-0.5-0.1c-0.2-0.1-0.3-0.2-0.3-0.4c0-0.2,0.1-0.4,0.3-0.5c0.2-0.1,0.4-0.2,0.6-0.3
			c0.4-0.1,0.7-0.3,1.1-0.5c0.3-0.2,0.5-0.5,0.5-1v-8.8c0-0.6-0.1-1.1-0.2-1.6c-0.2-0.5-0.5-0.7-1.1-0.8c-0.1,0-0.2-0.1-0.3-0.2
			c-0.1-0.1-0.1-0.3-0.1-0.5c0-0.3,0.1-0.5,0.4-0.6c0.7-0.2,1.3-0.3,1.9-0.5c0.6-0.2,1.2-0.4,1.8-0.7s1.1-0.5,1.5-0.8
			c0.1-0.1,0.2-0.1,0.2-0.2C7.5,15,7.6,15,7.7,15C7.9,15,8,15.1,8,15.4c0,0.2,0,0.6-0.1,1.1c-0.1,0.5-0.1,0.9-0.1,1.3
			c0,0.3,0,0.4,0.1,0.5H8c0.7-0.7,1.6-1.3,2.5-1.8c1-0.5,2.1-0.8,3.4-0.8c0.8,0,1.6,0.3,2.3,0.8c0.7,0.5,1.2,1.2,1.5,2.1h0.2
			c0.8-0.9,1.7-1.6,2.7-2.1c1-0.5,2.1-0.8,3.4-0.8c0.8,0,1.6,0.2,2.2,0.7c0.6,0.5,1.1,1.1,1.5,2c0.4,0.8,0.5,1.8,0.5,2.9v8.5
			c0,0.5,0.2,0.9,0.5,1c0.3,0.2,0.7,0.3,1.1,0.4c0.2,0.1,0.4,0.2,0.6,0.3s0.3,0.3,0.3,0.5c0,0.2-0.1,0.3-0.2,0.4
			c-0.1,0.1-0.3,0.1-0.5,0.1c-0.5,0-1,0-1.4-0.1c-0.4,0-0.8-0.1-1.2-0.1c-0.4,0-0.8,0-1.3,0c-0.4,0-0.8,0-1.2,0
			c-0.4,0-0.7,0.1-1.1,0.1c-0.4,0-0.8,0.1-1.3,0.1c-0.2,0-0.4,0-0.5-0.1c-0.1-0.1-0.2-0.2-0.2-0.4c0-0.2,0.1-0.4,0.2-0.5
			s0.4-0.2,0.6-0.3c0.4-0.1,0.7-0.2,0.9-0.4s0.4-0.5,0.4-0.9v-8.1c0-0.7-0.1-1.2-0.3-1.7c-0.2-0.5-0.5-0.9-0.9-1.2
			c-0.4-0.3-0.8-0.5-1.3-0.5c-0.4,0-0.9,0.1-1.4,0.2c-0.5,0.1-0.9,0.4-1.3,0.7c-0.5,0.4-0.7,1.1-0.7,2v8.4c0,0.5,0.1,0.9,0.4,1
			s0.6,0.3,1,0.4c0.2,0.1,0.4,0.2,0.6,0.3c0.2,0.1,0.3,0.3,0.3,0.5c0,0.2-0.1,0.3-0.2,0.4s-0.3,0.1-0.5,0.1c-0.5,0-1,0-1.4-0.1
			c-0.4,0-0.7-0.1-1.1-0.1c-0.3,0-0.7,0-1.2,0c-0.4,0-0.8,0-1.2,0c-0.4,0-0.7,0.1-1.1,0.1c-0.4,0-0.8,0.1-1.4,0.1
			c-0.2,0-0.3,0-0.5-0.1c-0.1-0.1-0.2-0.2-0.2-0.4c0-0.2,0.1-0.4,0.3-0.5s0.4-0.2,0.6-0.3c0.4-0.1,0.7-0.2,0.9-0.4
			c0.2-0.2,0.4-0.5,0.4-0.9v-8.1c0-0.7-0.1-1.2-0.3-1.7c-0.2-0.5-0.5-0.9-0.9-1.2c-0.4-0.3-0.8-0.5-1.3-0.5c-0.4,0-0.9,0.1-1.3,0.2
			c-0.4,0.1-0.9,0.4-1.4,0.7c-0.4,0.3-0.7,1-0.7,2v8.4c0,0.5,0.1,0.8,0.3,1c0.2,0.2,0.5,0.3,0.9,0.5c0.2,0.1,0.4,0.2,0.6,0.3
			s0.3,0.3,0.3,0.5c0,0.2-0.1,0.3-0.2,0.4c-0.1,0.1-0.3,0.1-0.5,0.1c-0.5,0-1,0-1.3-0.1c-0.4,0-0.7-0.1-1.1-0.1c-0.3,0-0.7,0-1.2,0
			c-0.4,0-0.9,0-1.2,0c-0.4,0-0.8,0.1-1.2,0.1C2.6,32.4,2.2,32.5,1.6,32.5z"/>
		<path d="M32.8,32.5c-0.2,0-0.4,0-0.5-0.1c-0.1-0.1-0.2-0.2-0.2-0.4c0-0.2,0.1-0.4,0.2-0.5s0.3-0.2,0.5-0.2
			c0.6-0.2,1.1-0.3,1.4-0.5c0.3-0.2,0.4-0.5,0.4-0.9v-8.5c0-0.8-0.1-1.5-0.4-1.9c-0.3-0.4-0.7-0.7-1.3-0.8c-0.1,0-0.2-0.1-0.3-0.2
			s-0.1-0.3-0.1-0.4c0-0.4,0.1-0.6,0.4-0.6c1.3-0.3,2.3-0.6,3.3-1.1c0.9-0.5,1.6-0.8,2.1-1.1c0.4-0.2,0.6-0.3,0.7-0.3
			c0.3,0,0.4,0.1,0.4,0.4c0,0.4-0.1,0.9-0.2,1.5c-0.1,0.6-0.2,1.3-0.2,2c-0.1,0.7-0.1,1.4-0.1,2v8.8c0,0.4,0.1,0.7,0.4,0.9
			c0.3,0.2,0.7,0.4,1.4,0.6c0.2,0.1,0.4,0.2,0.5,0.3c0.2,0.1,0.2,0.2,0.2,0.5c0,0.3-0.2,0.5-0.7,0.5c-0.5,0-1,0-1.4,0
			c-0.5,0-0.9-0.1-1.3-0.1c-0.4,0-0.9,0-1.4,0c-0.4,0-0.9,0-1.3,0c-0.4,0-0.8,0.1-1.3,0.1C33.8,32.4,33.3,32.5,32.8,32.5z
			 M36.7,12.7c-0.8,0-1.4-0.3-1.9-0.8C34.3,11.4,34,10.8,34,10c0-0.8,0.3-1.5,0.8-2c0.5-0.5,1.2-0.8,1.9-0.8c0.8,0,1.4,0.3,2,0.8
			c0.5,0.5,0.8,1.2,0.8,2c0,0.7-0.3,1.4-0.8,1.9C38.2,12.4,37.5,12.7,36.7,12.7z"/>
		<path d="M48.4,32.9c-0.8,0-1.6-0.1-2.4-0.3c-0.8-0.2-1.5-0.6-2.1-1c-0.2-0.4-0.3-0.9-0.4-1.7c-0.1-0.8-0.1-1.6-0.1-2.3
			c0-0.3,0.2-0.5,0.7-0.5c0.2,0,0.3,0.1,0.5,0.2c0.1,0.1,0.2,0.2,0.3,0.4c0.4,1.2,1,2.1,1.7,2.8c0.7,0.7,1.5,1,2.3,1
			c0.7,0,1.3-0.2,1.7-0.7c0.4-0.5,0.6-1,0.6-1.6c0-0.7-0.3-1.3-0.8-1.8c-0.5-0.5-1.2-1-2.1-1.5c-0.8-0.4-1.5-0.9-2.2-1.4
			c-0.6-0.5-1.1-1.1-1.5-1.7c-0.4-0.6-0.5-1.4-0.5-2.3c0-1,0.2-1.8,0.7-2.5c0.5-0.7,1.2-1.3,2.1-1.7c0.9-0.4,1.9-0.6,3.1-0.6
			c0.8,0,1.6,0.1,2.3,0.3c0.7,0.2,1.1,0.4,1.4,0.5c0.2,0.3,0.4,0.7,0.5,1.4c0.1,0.7,0.2,1.4,0.2,2.2c0,0.2-0.2,0.4-0.6,0.4
			c-0.2,0-0.4-0.1-0.5-0.2c-0.2-0.1-0.3-0.2-0.4-0.3c-0.3-1-0.8-1.7-1.3-2.2C51,17.2,50.4,17,49.7,17c-0.6,0-1.1,0.2-1.6,0.6
			c-0.5,0.4-0.7,0.9-0.7,1.6c0,0.5,0.2,1,0.7,1.5c0.5,0.4,1.1,0.9,2,1.4c1.6,0.9,2.8,1.7,3.6,2.5c0.7,0.8,1.1,1.9,1.1,3.2
			c0,1.6-0.5,2.9-1.6,3.8S50.4,32.9,48.4,32.9z"/>
		<path d="M64,43.7c-2.5,0-4.4-0.4-5.8-1.2c-1.4-0.8-2.1-1.9-2.1-3.3c0-0.7,0.1-1.3,0.3-1.8c0.2-0.5,0.6-0.9,1.2-1.4
			c0.4-0.3,0.9-0.7,1.5-1.1c0.5-0.4,1-0.8,1.5-1.1l1.8,0.5c-1,0.6-1.7,1.2-2.2,1.8c-0.5,0.6-0.7,1.3-0.7,2.2c0,1,0.5,1.9,1.4,2.6
			c0.9,0.7,2,1.1,3.4,1.1c1.7,0,3-0.4,3.8-1.1c0.5-0.5,1-1,1.3-1.7s0.5-1.3,0.5-2c0-0.5-0.2-0.9-0.5-1.2c-0.3-0.3-0.9-0.5-1.7-0.7
			c-0.8-0.2-1.9-0.3-3.2-0.5c-2.6-0.2-4.5-0.7-5.6-1.4s-1.6-1.6-1.6-2.8c0-0.2,0.1-0.5,0.2-0.7c0.1-0.2,0.4-0.5,0.8-0.8
			c0.5-0.4,0.9-0.7,1.2-0.9c0.3-0.2,0.6-0.5,0.8-0.7c0.2-0.2,0.4-0.4,0.5-0.6l1.7,0.7c-0.5,0.2-1,0.4-1.4,0.8
			c-0.4,0.3-0.5,0.6-0.5,0.9c0,0.3,0.2,0.5,0.5,0.8c0.4,0.2,0.9,0.4,1.7,0.5c0.8,0.1,1.8,0.2,3.2,0.4c2.7,0.2,4.7,0.6,5.9,1.2
			c1.2,0.6,1.9,1.6,1.9,2.8c0,1.1-0.3,2.1-0.9,3.2c-0.6,1-1.3,2-2.3,2.8c-0.9,0.8-2,1.5-3.1,2C66.4,43.4,65.2,43.7,64,43.7z
			 M64.2,28.5c-1.2,0-2.3-0.3-3.3-0.8c-1.1-0.6-1.9-1.3-2.6-2.3c-0.7-1-1-2-1-3.2c0-1.3,0.4-2.4,1.1-3.4c0.7-1,1.6-1.8,2.8-2.3
			c1.1-0.6,2.4-0.8,3.7-0.8c0.8,0,1.5,0.1,2.2,0.3c0.7,0.2,1.4,0.4,2.2,0.5c0.5,0.1,1,0.2,1.5,0.3c0.4,0.1,0.9,0.1,1.5,0.1
			c0.4,0,0.8,0,1.2-0.1c0.4,0,0.8-0.1,1-0.1c0.4,0,0.6,0.3,0.6,0.8c0,0.4-0.2,0.8-0.5,1.2c-0.1,0.2-0.3,0.2-0.4,0.2h-1.1
			c-0.7,0-1.1,0.1-1.3,0.3c-0.1,0.1-0.1,0.2-0.1,0.3c0,0.1,0,0.3-0.1,0.5c0,0.2,0,0.6,0,1.1c0,1.4-0.3,2.6-1,3.7
			c-0.7,1.1-1.5,2.1-2.6,2.7C66.6,28.1,65.5,28.5,64.2,28.5z M64.5,26.9c0.9,0,1.6-0.5,2.1-1.4c0.5-1,0.8-2.2,0.8-3.7
			c0-0.9-0.1-1.7-0.4-2.4s-0.6-1.3-1.1-1.7c-0.5-0.4-1-0.6-1.6-0.6c-0.5,0-1.1,0.2-1.5,0.6c-0.5,0.4-0.8,1-1.1,1.7
			c-0.3,0.7-0.4,1.5-0.4,2.3c0,1,0.1,1.8,0.4,2.6c0.3,0.8,0.7,1.4,1.2,1.9C63.4,26.6,64,26.9,64.5,26.9z"/>
		<path d="M76.1,32.5c-0.2,0-0.4,0-0.5-0.1s-0.2-0.2-0.2-0.4c0-0.2,0.1-0.4,0.2-0.5c0.2-0.1,0.3-0.2,0.5-0.2
			c0.6-0.2,1.1-0.3,1.4-0.5c0.3-0.2,0.4-0.5,0.4-0.9v-8.5c0-0.8-0.1-1.5-0.4-1.9c-0.3-0.4-0.7-0.7-1.3-0.8c-0.1,0-0.2-0.1-0.3-0.2
			c-0.1-0.1-0.1-0.3-0.1-0.4c0-0.4,0.1-0.6,0.4-0.6c1.3-0.3,2.3-0.6,3.3-1.1c0.9-0.5,1.6-0.8,2.1-1.1c0.4-0.2,0.6-0.3,0.7-0.3
			c0.3,0,0.4,0.1,0.4,0.4c0,0.4-0.1,0.9-0.2,1.5c-0.1,0.6-0.2,1.3-0.2,2c-0.1,0.7-0.1,1.4-0.1,2v8.8c0,0.4,0.1,0.7,0.4,0.9
			c0.3,0.2,0.7,0.4,1.4,0.6c0.2,0.1,0.4,0.2,0.5,0.3c0.2,0.1,0.2,0.2,0.2,0.5c0,0.3-0.2,0.5-0.7,0.5c-0.5,0-1,0-1.4,0
			c-0.5,0-0.9-0.1-1.3-0.1c-0.4,0-0.9,0-1.4,0c-0.4,0-0.9,0-1.3,0c-0.4,0-0.8,0.1-1.3,0.1C77.1,32.4,76.7,32.5,76.1,32.5z
			 M80.1,12.7c-0.8,0-1.4-0.3-1.9-0.8c-0.5-0.5-0.8-1.1-0.8-1.9c0-0.8,0.3-1.5,0.8-2c0.5-0.5,1.2-0.8,1.9-0.8c0.8,0,1.4,0.3,2,0.8
			c0.5,0.5,0.8,1.2,0.8,2c0,0.7-0.3,1.4-0.8,1.9C81.5,12.4,80.8,12.7,80.1,12.7z"/>
		<path d="M94.6,33.2c-0.2,0-0.3-0.2-0.5-0.5s-0.3-0.7-0.5-1.1c-0.2-0.4-0.4-0.9-0.6-1.5c-0.2-0.6-0.4-1.1-0.6-1.5
			c-0.6-1.5-1.3-3.1-2-4.5c-0.7-1.5-1.4-3-2-4.6c-0.2-0.5-0.5-1-0.8-1.4s-0.7-0.7-1.2-0.8c-0.2-0.1-0.4-0.2-0.5-0.3
			c-0.1-0.1-0.2-0.3-0.2-0.5c0-0.2,0.1-0.3,0.3-0.3c0.2,0,0.4-0.1,0.6-0.1c0.6,0,1,0,1.4,0c0.3,0,0.6,0.1,0.9,0.1
			c0.3,0,0.7,0.1,1.2,0.1c0.5,0,1,0,1.3-0.1c0.4,0,0.7-0.1,1.1-0.1c0.4,0,0.9,0,1.5,0c0.2,0,0.3,0,0.5,0.1c0.2,0.1,0.3,0.2,0.3,0.4
			c0,0.2-0.1,0.4-0.3,0.5c-0.2,0.1-0.4,0.2-0.6,0.3c-0.3,0.1-0.5,0.3-0.6,0.6c-0.1,0.3-0.2,0.6-0.2,1.1c0,0.2,0,0.4,0,0.6
			c0,0.2,0.1,0.4,0.1,0.6l2.7,7c0,0,0,0,0.1,0c0,0,0,0,0.1,0l2.5-6.7c0.1-0.2,0.2-0.5,0.2-0.7S99,19.2,99,19c0-0.5-0.1-0.9-0.3-1.2
			c-0.2-0.3-0.5-0.5-0.9-0.6c-0.3-0.1-0.5-0.2-0.6-0.3c-0.2-0.1-0.3-0.2-0.3-0.5c0-0.2,0.1-0.3,0.3-0.4c0.2-0.1,0.4-0.1,0.6-0.1
			c0.5,0,1,0.1,1.4,0.1s0.8,0.1,1.3,0.1c0.5,0,0.9,0,1.2-0.1s0.8-0.1,1.4-0.1c0.2,0,0.4,0,0.6,0.1c0.2,0.1,0.3,0.2,0.3,0.4
			c0,0.3-0.3,0.6-0.8,0.8c-0.4,0.2-0.9,0.5-1.3,0.9c-0.4,0.4-0.8,1-1,1.6l-3.1,7.6c-0.1,0.2-0.1,0.4-0.3,0.7c-0.1,0.3-0.3,0.6-0.4,1
			c-0.1,0.3-0.3,0.6-0.4,0.9s-0.2,0.5-0.3,0.6c-0.1,0.1-0.2,0.4-0.3,0.7c-0.2,0.4-0.3,0.7-0.5,1.1c-0.2,0.4-0.3,0.7-0.5,0.9H94.6z"
			/>
		<path d="M105.4,32.5c-0.2,0-0.4,0-0.5-0.1c-0.1-0.1-0.2-0.2-0.2-0.4c0-0.2,0.1-0.4,0.2-0.5c0.2-0.1,0.3-0.2,0.5-0.2
			c0.6-0.2,1.1-0.3,1.4-0.5c0.3-0.2,0.4-0.5,0.4-0.9v-8.5c0-0.8-0.1-1.5-0.4-1.9c-0.3-0.4-0.7-0.7-1.3-0.8c-0.1,0-0.2-0.1-0.3-0.2
			c-0.1-0.1-0.1-0.3-0.1-0.4c0-0.4,0.1-0.6,0.4-0.6c1.3-0.3,2.3-0.6,3.3-1.1c0.9-0.5,1.6-0.8,2.1-1.1c0.4-0.2,0.6-0.3,0.7-0.3
			c0.3,0,0.4,0.1,0.4,0.4c0,0.4-0.1,0.9-0.2,1.5c-0.1,0.6-0.2,1.3-0.2,2c-0.1,0.7-0.1,1.4-0.1,2v8.8c0,0.4,0.1,0.7,0.4,0.9
			c0.3,0.2,0.7,0.4,1.4,0.6c0.2,0.1,0.4,0.2,0.5,0.3c0.2,0.1,0.2,0.2,0.2,0.5c0,0.3-0.2,0.5-0.7,0.5c-0.5,0-1,0-1.4,0
			c-0.5,0-0.9-0.1-1.3-0.1c-0.4,0-0.9,0-1.4,0c-0.4,0-0.9,0-1.3,0c-0.4,0-0.8,0.1-1.3,0.1C106.4,32.4,105.9,32.5,105.4,32.5z
			 M109.3,12.7c-0.8,0-1.4-0.3-1.9-0.8c-0.5-0.5-0.8-1.1-0.8-1.9c0-0.8,0.3-1.5,0.8-2c0.5-0.5,1.2-0.8,1.9-0.8c0.8,0,1.4,0.3,2,0.8
			c0.5,0.5,0.8,1.2,0.8,2c0,0.7-0.3,1.4-0.8,1.9C110.8,12.4,110.1,12.7,109.3,12.7z"/>
		<path d="M116.4,32.5c-0.2,0-0.4,0-0.5-0.1c-0.2-0.1-0.2-0.2-0.2-0.4c0-0.2,0.1-0.4,0.3-0.5s0.4-0.2,0.6-0.3
			c0.4-0.1,0.8-0.2,1.1-0.4c0.3-0.2,0.5-0.5,0.5-1.1v-8.8c0-0.6-0.1-1.1-0.3-1.5s-0.5-0.7-1.1-0.8c-0.1-0.1-0.2-0.1-0.3-0.2
			c-0.1-0.1-0.1-0.2-0.1-0.5c0-0.3,0.1-0.5,0.4-0.6c0.9-0.2,1.8-0.5,2.7-0.8c0.9-0.4,1.7-0.7,2.4-1.1c0.1-0.1,0.2-0.1,0.3-0.2
			c0.1-0.1,0.2-0.1,0.3-0.1c0.1,0,0.2,0,0.3,0.1c0,0.1,0.1,0.2,0.1,0.3c0,0.2,0,0.5-0.1,1c-0.1,0.5-0.1,0.9-0.1,1.3
			c0,0.1,0,0.2,0,0.3c0,0.1,0,0.2,0.1,0.2c0.9-0.8,1.8-1.5,2.8-2c1-0.5,2-0.7,3.2-0.7c1.3,0,2.5,0.5,3.4,1.5c0.9,1,1.4,2.4,1.4,4
			v8.5c0,0.5,0.2,0.9,0.5,1c0.3,0.2,0.7,0.3,1.1,0.4c0.2,0.1,0.4,0.2,0.6,0.3c0.2,0.1,0.3,0.3,0.3,0.5c0,0.2-0.1,0.3-0.3,0.4
			s-0.3,0.1-0.5,0.1c-0.5,0-1,0-1.4-0.1c-0.4,0-0.8-0.1-1.2-0.1c-0.4,0-0.8,0-1.3,0c-0.4,0-0.9,0-1.3,0c-0.4,0-0.8,0.1-1.2,0.1
			c-0.4,0-0.9,0.1-1.4,0.1c-0.1,0-0.3,0-0.4-0.1c-0.2-0.1-0.2-0.2-0.2-0.4c0-0.2,0.1-0.4,0.2-0.5c0.2-0.1,0.3-0.2,0.5-0.3
			c0.4-0.1,0.7-0.3,1-0.4c0.3-0.2,0.5-0.5,0.5-1v-8c0-1-0.3-1.9-0.8-2.5c-0.5-0.6-1.2-0.9-2.1-0.9c-0.7,0-1.3,0.1-1.8,0.3
			c-0.5,0.2-1,0.5-1.5,0.9c-0.1,0.1-0.2,0.2-0.2,0.3c-0.1,0.1-0.1,0.3-0.1,0.5v9.3c0,0.5,0.2,0.9,0.5,1c0.3,0.2,0.6,0.3,1,0.4
			c0.5,0.2,0.8,0.4,0.8,0.7c0,0.2-0.1,0.3-0.2,0.4s-0.3,0.1-0.5,0.1c-0.5,0-1,0-1.4-0.1c-0.4,0-0.8-0.1-1.1-0.1c-0.4,0-0.8,0-1.3,0
			c-0.4,0-0.9,0-1.3,0c-0.4,0-0.8,0.1-1.2,0.1C117.4,32.4,117,32.5,116.4,32.5z"/>
		<path d="M144.7,43.7c-2.5,0-4.4-0.4-5.8-1.2c-1.4-0.8-2.1-1.9-2.1-3.3c0-0.7,0.1-1.3,0.3-1.8c0.2-0.5,0.6-0.9,1.2-1.4
			c0.4-0.3,0.9-0.7,1.5-1.1c0.5-0.4,1-0.8,1.5-1.1l1.8,0.5c-1,0.6-1.7,1.2-2.2,1.8c-0.5,0.6-0.7,1.3-0.7,2.2c0,1,0.5,1.9,1.4,2.6
			c0.9,0.7,2,1.1,3.4,1.1c1.7,0,3-0.4,3.8-1.1c0.5-0.5,1-1,1.3-1.7s0.5-1.3,0.5-2c0-0.5-0.2-0.9-0.5-1.2c-0.3-0.3-0.9-0.5-1.7-0.7
			c-0.8-0.2-1.9-0.3-3.2-0.5c-2.6-0.2-4.5-0.7-5.6-1.4c-1.1-0.7-1.6-1.6-1.6-2.8c0-0.2,0.1-0.5,0.2-0.7c0.1-0.2,0.4-0.5,0.8-0.8
			c0.5-0.4,0.9-0.7,1.2-0.9c0.3-0.2,0.6-0.5,0.8-0.7c0.2-0.2,0.4-0.4,0.5-0.6l1.7,0.7c-0.5,0.2-1,0.4-1.4,0.8
			c-0.4,0.3-0.5,0.6-0.5,0.9c0,0.3,0.2,0.5,0.5,0.8c0.4,0.2,0.9,0.4,1.7,0.5c0.8,0.1,1.8,0.2,3.2,0.4c2.7,0.2,4.7,0.6,5.9,1.2
			s1.9,1.6,1.9,2.8c0,1.1-0.3,2.1-0.9,3.2c-0.6,1-1.3,2-2.3,2.8c-0.9,0.8-2,1.5-3.1,2C147,43.4,145.9,43.7,144.7,43.7z M144.8,28.5
			c-1.2,0-2.3-0.3-3.3-0.8c-1.1-0.6-1.9-1.3-2.6-2.3c-0.7-1-1-2-1-3.2c0-1.3,0.4-2.4,1.1-3.4c0.7-1,1.6-1.8,2.8-2.3s2.4-0.8,3.7-0.8
			c0.8,0,1.5,0.1,2.2,0.3c0.7,0.2,1.4,0.4,2.2,0.5c0.5,0.1,1,0.2,1.5,0.3c0.4,0.1,0.9,0.1,1.5,0.1c0.4,0,0.8,0,1.2-0.1
			c0.4,0,0.8-0.1,1-0.1c0.4,0,0.6,0.3,0.6,0.8c0,0.4-0.2,0.8-0.5,1.2c-0.1,0.2-0.3,0.2-0.4,0.2h-1.1c-0.7,0-1.1,0.1-1.3,0.3
			c-0.1,0.1-0.1,0.2-0.1,0.3c0,0.1,0,0.3-0.1,0.5c0,0.2,0,0.6,0,1.1c0,1.4-0.3,2.6-1,3.7c-0.7,1.1-1.5,2.1-2.6,2.7
			C147.3,28.1,146.1,28.5,144.8,28.5z M145.2,26.9c0.9,0,1.6-0.5,2.1-1.4c0.5-1,0.8-2.2,0.8-3.7c0-0.9-0.1-1.7-0.4-2.4
			s-0.6-1.3-1.1-1.7s-1-0.6-1.6-0.6c-0.5,0-1.1,0.2-1.5,0.6c-0.5,0.4-0.8,1-1.1,1.7c-0.3,0.7-0.4,1.5-0.4,2.3c0,1,0.1,1.8,0.4,2.6
			c0.3,0.8,0.7,1.4,1.2,1.9C144.1,26.6,144.6,26.9,145.2,26.9z"/>
		<path d="M161.4,32.9c-0.8,0-1.6-0.1-2.4-0.3c-0.8-0.2-1.5-0.6-2.1-1c-0.2-0.4-0.3-0.9-0.4-1.7c-0.1-0.8-0.1-1.6-0.1-2.3
			c0-0.3,0.2-0.5,0.7-0.5c0.2,0,0.3,0.1,0.5,0.2c0.1,0.1,0.2,0.2,0.3,0.4c0.4,1.2,1,2.1,1.7,2.8c0.7,0.7,1.5,1,2.3,1
			c0.7,0,1.3-0.2,1.7-0.7c0.4-0.5,0.6-1,0.6-1.6c0-0.7-0.3-1.3-0.8-1.8c-0.5-0.5-1.2-1-2.1-1.5c-0.8-0.4-1.5-0.9-2.2-1.4
			c-0.6-0.5-1.1-1.1-1.5-1.7c-0.4-0.6-0.5-1.4-0.5-2.3c0-1,0.2-1.8,0.7-2.5c0.5-0.7,1.2-1.3,2.1-1.7c0.9-0.4,1.9-0.6,3.1-0.6
			c0.8,0,1.6,0.1,2.3,0.3c0.7,0.2,1.1,0.4,1.4,0.5c0.2,0.3,0.4,0.7,0.5,1.4c0.1,0.7,0.2,1.4,0.2,2.2c0,0.2-0.2,0.4-0.6,0.4
			c-0.2,0-0.4-0.1-0.5-0.2c-0.2-0.1-0.3-0.2-0.4-0.3c-0.3-1-0.8-1.7-1.3-2.2c-0.5-0.5-1.1-0.7-1.8-0.7c-0.6,0-1.1,0.2-1.6,0.6
			c-0.5,0.4-0.7,0.9-0.7,1.6c0,0.5,0.2,1,0.7,1.5c0.5,0.4,1.1,0.9,2,1.4c1.6,0.9,2.8,1.7,3.6,2.5c0.7,0.8,1.1,1.9,1.1,3.2
			c0,1.6-0.5,2.9-1.6,3.8S163.4,32.9,161.4,32.9z"/>
	</g>
</g>
</svg>
