<?xml version="1.0" encoding="utf-8"?>
<!-- Generator: Adobe Illustrator 24.1.2, SVG Export Plug-In . SVG Version: 6.00 Build 0)  -->
<svg version="1.1" id="Layer_1" xmlns="http://www.w3.org/2000/svg" xmlns:xlink="http://www.w3.org/1999/xlink" x="0px" y="0px"
	 viewBox="0 0 43.6 31.3" style="enable-background:new 0 0 43.6 31.3;" xml:space="preserve">
<style type="text/css">
	.st0{fill:#CDD6B9;}
	.st1{fill:none;stroke:#B0B6A1;stroke-width:0.75;stroke-miterlimit:10;}
	.st2{opacity:0.2;fill:none;stroke:#000000;stroke-miterlimit:10;enable-background:new    ;}
	.st3{fill:#B0B6A1;stroke:#B0B6A1;stroke-width:0.75;stroke-miterlimit:10;}
	.st4{fill:#FFFA86;stroke:#FFFA86;stroke-miterlimit:10;}
	.st5{fill:#B0B6A1;}
	.st6{fill:#C1745F;}
	.st7{fill:#C1745F;stroke:#000000;stroke-miterlimit:10;}
</style>
<ellipse class="st0" cx="-36.7" cy="6.1" rx="12.8" ry="9.1"/>
<line class="st1" x1="-36.7" y1="15.9" x2="-36.7" y2="31.8"/>
<line class="st2" x1="-49.1" y1="44.2" x2="-53" y2="60"/>
<line class="st2" x1="-71.1" y1="46.7" x2="-61.1" y2="59.5"/>
<line class="st2" x1="-77.7" y1="50.2" x2="-64.5" y2="59.9"/>
<line class="st2" x1="-83.6" y1="53.2" x2="-74.5" y2="66.8"/>
<line class="st2" x1="-44.8" y1="49.5" x2="-51.3" y2="64.5"/>
<line class="st2" x1="-38.9" y1="49.9" x2="-41.2" y2="66.2"/>
<line class="st2" x1="-33.9" y1="48.9" x2="-36.2" y2="65.2"/>
<ellipse class="st3" cx="-36.7" cy="6.1" rx="13.3" ry="9.6"/>
<g>
	<path class="st3" d="M-36.2,30.2c-0.1-1.3-0.1-4.1,1.5-6.8c2.4-4.1,8.1-7.5,11.7-5.4c2,1.2,3.3,4,2.7,6.3c-1.4,5-11,5.8-12.5,5.9
		C-34.2,30.3-35.4,30.3-36.2,30.2z"/>
	<path class="st3" d="M-36.6,30.6c-0.1-1.4-0.1-4.3,1.6-7.2c2.6-4.4,8.6-7.9,12.4-5.7c2.1,1.3,3.5,4.3,2.8,6.7
		c-1.3,5.2-11.6,6.1-13.1,6.2S-35.8,30.7-36.6,30.6z"/>
</g>
<g>
	<path class="st3" d="M-37.3,30.2c0.1-1.3,0.1-4.1-1.5-6.8c-2.4-4.1-8-7.5-11.6-5.4c-2,1.2-3.3,4-2.7,6.3c1.3,4.9,10.9,5.7,12.4,5.8
		C-39.4,30.3-38.2,30.3-37.3,30.2z"/>
	<path class="st3" d="M-36.8,30.6c0.1-1.4,0.1-4.3-1.6-7.2C-41,19-47,15.5-50.8,17.7c-2.1,1.3-3.5,4.3-2.8,6.7
		c1.3,5.2,11.6,6.1,13.1,6.2S-37.6,30.7-36.8,30.6z"/>
</g>
<path class="st4" d="M86.3,34.2c-0.1-4.7-0.7-10.1-2.5-15.7c-0.3-0.9-0.6-1.8-0.9-2.7c2.1,0,4.3,0,6.4,0c-0.4,1-0.7,2.1-1,3.3
	C86.8,24.5,86.3,29.7,86.3,34.2z"/>
<path class="st0" d="M-77.9-107c-2.8-2.1-5.2-4.7-8.1-6.8c-2.8-2.1-6.4-3.6-9.8-2.9c-3.9,0.7-6.7,4-8.8,7.3c-1.8,2.8-3.3,6-3.1,9.3
	c0.2,4.5,3.5,8.5,7.5,10.6c4,2.2,8.5,3,13,3.7c6.4,1,12.8,2.1,19.2,3.1c0.6,0.1,1.3,0.2,1.8,0.7c0.6,0.6,0.6,1.5,0.5,2.3
	c-0.4,7.9-0.2,15.9,0.6,23.8c0.4,3.4,1,7.2,3.7,9.4c0.4,0.3,0.9,0.6,1.4,0.5c0.3-0.1,0.6-0.3,0.8-0.6c5.5-6.3,6.2-15.3,6.7-23.6
	c0.2-3.8,0.4-7.6,0.2-11.3c1.1,2.2,2.7,4.1,4.7,5.5c1.4-2.4,0.2-5.4-1.1-7.8c6,4.6,13.1,9.6,20.5,8c0.8-2.5-0.7-5.3-2.8-7
	s-4.8-2.3-7.3-3.2c-2.5-0.8-5.1-1.9-6.9-3.9c-2.6-3-2.5-7.4-1.8-11.3c1.8-9.4,6.8-18.3,6.4-27.9c-0.1-2.4-0.6-4.9-1.9-6.9
	c-1.3-2-3.5-3.6-5.9-3.7c-3.9-0.2-7,3.5-7.9,7.2c-0.9,3.8-0.2,7.7,0.1,11.5c0.5,7.1-0.4,14.3-2.8,21c-0.7-0.9-0.7-2.2-1.1-3.3
	c-0.4-1.1-1.5-2.2-2.6-1.8c-3.5,1.5,3.5,8.4-3.2,4.7C-69.9-102.5-74.2-104.4-77.9-107z"/>
<path class="st5" d="M113.3-55.1c-3.5-2.6-10.7-7.9-20.2-16.1c0,0-7.8-6.8-8.5-13.8c-0.1-0.5-0.2-1.9,0.7-2.9
	c0.7-0.8,1.5-0.8,2.6-1.1c1.5-0.4,3.8-1.2,5-2.3c2-1.8,2.3-5.9,0.9-8.5c-1.5-2.7-4.2-4.5-7.1-5.5c-5.3-1.9-11.7-1.3-16.1,2.3
	c-4.4,3.6-6.2,10.3-3.6,15.3s9.9,7.1,14.5,3.7c2.2,5.5,5.9,10.2,10,14.4c6.1,6.3,13.2,11.5,20.2,16.7c6.9,5.2,13.2,11.1,19.9,16.3
	C124.9-45.9,118.2-51.4,113.3-55.1z"/>
<path class="st5" d="M79.1-107.4c1.8,0,3.5,0.2,5.3,0.5c1.9,0.3,3.7,0.7,5.6,1.1c1.1,0.2,2.2,0.5,3,1.2c1.8,1.3,2.4,3.7,2.7,5.9
	c0.2,2.4,0.2,4.9-0.9,7c-1.8,3.3-5.6,4.7-8.7,6.8c-1.2,0.8-2.4,1.7-3.8,2.3c-2.9,1.3-6.3,0.9-9.5,0.5c-1.4-0.2-2.7-0.4-4.1-0.5
	c-0.5-0.1-1.1-0.1-1.6-0.4s-1-0.7-1.4-1.1c-2.9-3.3-3.6-8.4-1.9-12.4C66.4-102.2,72.8-107.2,79.1-107.4z"/>
<path class="st5" d="M64.2-20.6c1.8,0,3.5,0.2,5.3,0.5c1.9,0.3,3.7,0.7,5.6,1.1c1.1,0.2,2.2,0.5,3,1.2c1.8,1.3,2.4,3.7,2.7,5.9
	C81-9.5,81-7,79.9-4.9c-1.8,3.3-5.6,4.7-8.7,6.8c-1.2,0.8-2.4,1.7-3.8,2.3c-2.9,1.3-6.3,0.9-9.5,0.5c-1.4-0.2-2.7-0.4-4.1-0.5
	c-0.5-0.1-1.1-0.1-1.6-0.4s-1-0.7-1.4-1.1C48-0.7,47.3-5.8,49.1-9.8C51.5-15.4,58-20.5,64.2-20.6z"/>
<path class="st6" d="M29.9,2.3c1.9,1.2,3.7,2.5,5.4,4c1.9,1.6,3.5,3.2,5.3,4.8c1.1,0.9,2.1,2,2.5,3.2c1.1,2.6,0.2,5.6-0.9,8.1
	c-1.3,2.7-3,5.4-5.5,7c-4.1,2.4-9.1,1.4-13.8,1.7c-1.8,0.1-3.7,0.3-5.6,0c-4-0.5-7.4-3.1-10.6-5.6c-1.4-1.1-2.7-2.2-4.1-3.2
	c-0.5-0.4-1.1-0.8-1.5-1.5c-0.3-0.6-0.6-1.4-0.8-2.1C-0.5,13.3,2.1,7.4,6.6,4.2C12.8-0.3,23.2-1.6,29.9,2.3z"/>
<rect x="-25.3" y="-31.7" class="st7" width="26.4" height="15.2"/>
</svg>
