<?xml version="1.0" encoding="utf-8"?>
<!-- Generator: Adobe Illustrator 24.1.2, SVG Export Plug-In . SVG Version: 6.00 Build 0)  -->
<svg version="1.1" id="Layer_1" xmlns="http://www.w3.org/2000/svg" xmlns:xlink="http://www.w3.org/1999/xlink" x="0px" y="0px"
	 viewBox="0 0 396.1 204.2" style="enable-background:new 0 0 396.1 204.2;" xml:space="preserve">
<style type="text/css">
	.st0{fill:#A7A9AC;}
	.st1{fill:#E6E7E8;}
	.st2{fill:none;stroke:#000000;stroke-width:0.5;stroke-miterlimit:10;}
	.st3{fill:none;stroke:#000000;stroke-width:0.5;stroke-miterlimit:10;stroke-dasharray:11.9026,11.9026;}
	.st4{fill:none;stroke:#000000;stroke-width:0.5;stroke-miterlimit:10;stroke-dasharray:10.7165,10.7165;}
	.st5{font-family:'NotCourierSans';}
	.st6{font-size:12px;}
</style>
<g>
	<path d="M372.1,0h-12v0.5h12V0L372.1,0z M348.1,0h-12v0.5h12V0L348.1,0z M324.1,0h-12v0.5h12V0L324.1,0z M300.1,0h-12v0.5h12V0
		L300.1,0z M276.1,0h-12v0.5h12V0L276.1,0z M252.1,0h-12v0.5h12V0L252.1,0z M228.1,0h-12v0.5h12V0L228.1,0z M204.1,0h-12v0.5h12V0
		L204.1,0z M180.1,0h-12v0.5h12V0L180.1,0z M156.1,0h-12v0.5h12V0L156.1,0z M132.1,0h-12v0.5h12V0L132.1,0z M108.1,0h-12v0.5h12V0
		L108.1,0z M84.1,0h-12v0.5h12V0L84.1,0z M60.1,0h-12v0.5h12V0L60.1,0z M36.1,0h-12v0.5h12V0L36.1,0z M12.1,0h-12v0.5h12V0L12.1,0z
		 M0.5,11.9H0v12h0.5V11.9L0.5,11.9z M0.5,35.9H0v12h0.5V35.9L0.5,35.9z M0.5,59.9H0v12h0.5V59.9L0.5,59.9z M0.5,83.9H0v12h0.5V83.9
		L0.5,83.9z M0.5,107.9H0v12h0.5V107.9L0.5,107.9z M0.5,131.9H0v12h0.5V131.9L0.5,131.9z M0.5,155.9H0v12h0.5V155.9L0.5,155.9z
		 M0.5,179.9H0v12h0.5V179.9L0.5,179.9z M11.7,203.7H0v0.2l0,0v-0.2v0.2l0,0v0.3h0.5l0,0l0,0l0,0l0,0c2.2,0,11.2,0,11.2,0V203.7
		L11.7,203.7z M35.7,203.7h-12v0.5h12V203.7L35.7,203.7z M59.7,203.7h-12v0.5h12V203.7L59.7,203.7z M83.7,203.7h-12v0.5h12V203.7
		L83.7,203.7z M107.7,203.7h-12v0.5h12V203.7L107.7,203.7z M131.7,203.7h-12v0.5h12V203.7L131.7,203.7z M155.7,203.7h-12v0.5h12
		V203.7L155.7,203.7z M179.7,203.7h-12v0.5h12V203.7L179.7,203.7z M203.7,203.7h-12v0.5h12V203.7L203.7,203.7z M227.7,203.7h-12v0.5
		h12V203.7L227.7,203.7z M251.7,203.7h-12v0.5h12V203.7L251.7,203.7z M275.7,203.7h-12v0.5h12V203.7L275.7,203.7z M299.7,203.7h-12
		v0.5h12V203.7L299.7,203.7z M323.7,203.7h-12v0.5h12V203.7L323.7,203.7z M347.7,203.7h-12v0.5h12V203.7L347.7,203.7z M371.7,203.7
		h-12v0.5h12V203.7L371.7,203.7z M395.7,203.7h-12v0.5h12V203.7L395.7,203.7z M396.1,180.6h-0.5v12h0.5V180.6L396.1,180.6z
		 M396.1,156.6h-0.5v12h0.5V156.6L396.1,156.6z M396.1,132.6h-0.5v12h0.5V132.6L396.1,132.6z M396.1,108.6h-0.5v12h0.5V108.6
		L396.1,108.6z M396.1,84.6h-0.5v12h0.5V84.6L396.1,84.6z M396.1,60.6h-0.5v12h0.5V60.6L396.1,60.6z M396.1,36.6h-0.5v12h0.5V36.6
		L396.1,36.6z M396.1,12.6h-0.5v12h0.5V12.6L396.1,12.6z M396.1,0h-12v0.5h11.5v0.1h0.5V0L396.1,0z"/>
</g>
<rect x="21" y="21.1" class="st0" width="354.1" height="162.1"/>
<g>
	<rect x="47.5" y="43.7" class="st1" width="301.1" height="116.9"/>
</g>
<g>
	<rect x="79" y="69.3" class="st1" width="238.1" height="65.6"/>
	<g>
		<polyline class="st2" points="317.1,128.9 317.1,134.9 311.1,134.9 		"/>
		<line class="st3" x1="299.2" y1="134.9" x2="90.9" y2="134.9"/>
		<polyline class="st2" points="85,134.9 79,134.9 79,128.9 		"/>
		<line class="st4" x1="79" y1="118.2" x2="79" y2="80.7"/>
		<polyline class="st2" points="79,75.3 79,69.3 85,69.3 		"/>
		<line class="st3" x1="96.9" y1="69.3" x2="305.2" y2="69.3"/>
		<polyline class="st2" points="311.1,69.3 317.1,69.3 317.1,75.3 		"/>
		<line class="st4" x1="317.1" y1="86" x2="317.1" y2="123.6"/>
	</g>
</g>
<text transform="matrix(1 0 0 1 172.9125 105.2827)" class="st5 st6">content</text>
<text transform="matrix(1 0 0 1 172.9125 60.7326)" class="st5 st6">padding</text>
<text transform="matrix(1 0 0 1 176.5126 37.3973)" class="st5 st6">border</text>
<text transform="matrix(1 0 0 1 176.5126 14.062)" class="st5 st6">margin</text>
<g>
	<g>
		<line class="st2" x1="21.2" y1="190.7" x2="192.1" y2="190.7"/>
		<g>
			<rect x="21" y="189.1" width="0.5" height="3.2"/>
		</g>
	</g>
</g>
<g>
	<g>
		<line class="st2" x1="374.8" y1="190.7" x2="203.2" y2="190.7"/>
		<g>
			<rect x="374.6" y="189.1" width="0.5" height="3.2"/>
		</g>
	</g>
</g>
<g>
	<g>
		<line class="st2" x1="382.8" y1="21.3" x2="382.8" y2="95.4"/>
		<g>
			<rect x="381.2" y="21.1" width="3.2" height="0.5"/>
		</g>
	</g>
</g>
<g>
	<g>
		<line class="st2" x1="382.8" y1="182.9" x2="382.8" y2="108.9"/>
		<g>
			<rect x="381.2" y="182.7" width="3.2" height="0.5"/>
		</g>
	</g>
</g>
<text transform="matrix(1 0 0 1 194.4366 193.3822)" class="st5 st6">w</text>
<text transform="matrix(1 0 0 1 379.2139 105.6902)" class="st5 st6">h</text>
</svg>
