<?xml version="1.0" encoding="utf-8"?>
<!-- Generator: Adobe Illustrator 23.1.1, SVG Export Plug-In . SVG Version: 6.00 Build 0)  -->
<svg version="1.1" id="Layer_1" xmlns="http://www.w3.org/2000/svg" xmlns:xlink="http://www.w3.org/1999/xlink" x="0px" y="0px"
	 viewBox="0 0 74.6 79.8" style="enable-background:new 0 0 74.6 79.8;" xml:space="preserve">
<style type="text/css">
	.st0{fill:#CDD6B9;}
	.st1{fill:#4A4036;}
	.st2{fill:none;stroke:#4A4036;stroke-width:4;stroke-miterlimit:10;}
	.st3{fill:#B1B7A1;}
</style>
<path class="st0" d="M-193.2,100.1c4.8-3,4.2-4.4,8.7-8.3c3-2.6,6.9-4.8,10.9-4.4c1.7,0.2,3.5,0.9,4.7,2.1c1.4,1.4,2,3.4,2.4,5.4
	c0.7,3.3,1.1,6.7,1,10.1c0,2.2-0.3,4.6-2,5.9c-1.3,1.1-3.1,1.2-4.8,1.6c-4.4,1-8.1,3.6-12,5.8c-3.9,2.2-8.4,3.9-12.8,2.8
	c4.3,7.7,6.7,17,4.3,25.5c-0.7,2.4-1.8,4.8-3.7,6.4c-1.9,1.6-4.7,2.3-6.9,1.3c-2.5-1.2-3.6-4.2-4.3-6.9c-1.8-7.6-1.8-15.5-0.2-23.1
	c-1.2,2.5-2.3,5-3.5,7.5c-0.6,1.3-1.4,2.7-2.7,3c-1.2-1.6-0.8-4,0-5.9c0.8-1.9,1.9-3.8,1.9-5.9c-4.6,6.2-10.8,11.2-17.9,14.4
	c-2.6,1.2-5.9,2.1-8.2,0.3c-1.8-1.4-2.2-4.2-1.4-6.3c0.8-2.2,2.6-3.8,4.5-5.1c4.5-3,9.9-4.2,15.1-5.1c1.3-0.2,2.9-0.6,3.5-1.8
	c0.5-0.9,0.2-2-0.1-3c-3-10.6-9.4-20.5-9.1-31.6c0.1-2.6,0.6-5.2,2.1-7.2c1.6-2,4.4-3.2,6.8-2.3c2.3,1,3.5,3.6,4.3,6
	c1.1,3.6,1.9,7.2,2.3,10.9c0.7,6.7,0.3,13.7,3,19.9c-0.7-1.2-0.4-2.6-0.4-4c0-3.8,5.1-1.5,3,3.8c0.7-0.8,1.7-2,2.9-3.6
	c2.2-2.7,2.7-3.6,3.9-4.8C-196.3,101.7-195,101.2-193.2,100.1z"/>
<path class="st0" d="M-287.9-111.7c-0.2,3.9,3.8,6.9,7.6,7.2c3.9,0.3,7.6-1.3,11.1-2.9c0.8,7.8,4,15.1,6.4,22.5
	c3.6,11.2,5.5,22.9,5.6,34.6c1-20.2,0.5-40.4-1.5-60.5c6.9-5.1,12-12.6,14.2-20.9c-9.6,1.4-16.3,4-24.6,8.3
	C-274.3-120.5-287.5-119.7-287.9-111.7z"/>
<path class="st0" d="M-136.5,9.3c-2.8-2.1-5.2-4.7-8.1-6.8c-2.8-2.1-6.4-3.6-9.8-2.9c-3.9,0.7-6.7,4-8.8,7.3c-1.8,2.8-3.3,6-3.1,9.3
	c0.2,4.5,3.5,8.5,7.5,10.6s8.5,3,13,3.7c6.4,1,12.8,2.1,19.2,3.1c0.6,0.1,1.3,0.2,1.8,0.7c0.6,0.6,0.6,1.5,0.5,2.3
	c-0.4,7.9-0.2,15.9,0.6,23.8c0.4,3.4,1,7.2,3.7,9.4c0.4,0.3,0.9,0.6,1.4,0.5c0.3-0.1,0.6-0.3,0.8-0.6c5.5-6.3,6.2-15.3,6.7-23.6
	c0.2-3.8,0.4-7.6,0.2-11.3c1.1,2.2,2.7,4.1,4.7,5.5c1.4-2.4,0.2-5.4-1.1-7.8c6,4.6,13.1,9.6,20.5,8c0.8-2.5-0.7-5.3-2.8-7
	c-2.1-1.6-4.8-2.3-7.3-3.2c-2.5-0.8-5.1-1.9-6.9-3.9c-2.6-3-2.5-7.4-1.8-11.3c1.8-9.4,6.8-18.3,6.4-27.9c-0.1-2.4-0.6-4.9-1.9-6.9
	s-3.5-3.6-5.9-3.7c-3.9-0.2-7,3.5-7.9,7.2s-0.2,7.7,0.1,11.5c0.5,7.1-0.4,14.3-2.8,21c-0.7-0.9-0.7-2.2-1.1-3.3
	c-0.4-1.1-1.5-2.2-2.6-1.8c-3.5,1.5,3.5,8.4-3.2,4.7C-128.6,13.8-132.9,11.9-136.5,9.3z"/>
<path class="st0" d="M-89.4,92.1c-3.5-0.6-7.4-0.6-10,1.7c-3,2.6-3.2,7.5-1.2,10.9c2,3.4,5.6,5.6,9.4,6.8c4.6,1.5,9.9,1.8,14-0.7
	c1.6-1,3.2-2.4,5.1-2.1c-0.2,5.1,0.3,11.1,4.6,13.9c0.3,0.2,0.7,0.4,1.1,0.3c0.3-0.1,0.6-0.3,0.8-0.6c2.4-3.2-0.3-7.7,0.5-11.6
	c0.1-0.7,0.5-1.5,1.1-1.7c0.5-0.2,1.1,0,1.6,0.1c1.9,0.5,4.1,0.5,5.8-0.5c1.7-1,2.7-3.4,1.7-5.1c-0.8-1.4-2.5-1.9-4.1-2
	c-1.6-0.1-3.2,0.2-4.7,0c-0.4-0.1-0.9-0.2-1.2-0.6c-0.3-0.4-0.2-1-0.1-1.5c0.8-3.2,2.1-6.2,2.9-9.3c1.1-4.4,1.3-9.1,0.4-13.5
	c-0.5-2.4-1.5-5.1-3.9-5.9c-2.3-0.7-4.8,0.8-6,2.8c-1.2,2.1-1.3,4.5-1.4,6.9c-0.3,8.8,2.4,17.9,2.3,17.9c-0.1,0-0.4-2.7-1.8-3.1
	c-0.6-0.2-1.2,0.1-1.7,0.4c-0.1,0.1-0.5,0.5-0.4,1.1c0,0.5,0.4,1,0.9,1.2C-79,96.3-83.6,93-89.4,92.1z"/>
<path class="st1" d="M-182.2,73.1c0,0,0.1,0,0.1,0"/>
<path d="M152.2,82.6c-1,0.1-2.1,0.2-3,0.7c-0.7,0.4-1.3,1-1.9,1.6c-4.3,4.7-7.7,10.3-10.1,16.2c-0.3,0.7-0.5,1.4-0.3,2
	c0.5,2.4,4.9,2.3,5,4.7c0,0.7-0.3,1.3-0.7,1.9c-3.2,5.5-6.5,11-9.7,16.6c-1.3,2.2-2.6,4.7-1.6,7c0.5,1.2,1.4,2,2.3,2.9
	c3.2,2.9,6.4,5.8,9.6,8.6c0.7,0.6,1.4,1.2,2.2,1.6c3,1.3,6.3-0.8,9.5-1.4c6-1,12,3.6,17.9,2.1c3.6-0.9,6.3-3.9,9.3-6
	c1.9-1.3,4.1-2.4,5.9-3.8c3.4-2.6,5.8-6.6,6.4-10.8c0.1-0.8,0.2-1.6-0.2-2.2c-0.6-1.1-2.1-1.4-3.3-1.8c-5-1.4-8.8-6.4-8.8-11.6
	c0-3.4,1.4-6.6,2-9.9c0.6-3.3,0.3-7.2-2.4-9.3c-1.7-1.3-3.9-1.6-6-2c-2.1-0.5-4.3-1.4-5.1-3.4c-0.4-1.1-0.5-2.4-1.4-3.1
	c-0.4-0.3-1-0.5-1.5-0.6C161.1,81.4,157.4,82.6,152.2,82.6z"/>
<path d="M67.4-87.9c11.9,2.3,23.1,7.7,34.8,11c7.2,2,14.7,3.2,21.9,5.4c7.9,2.4,15.3,6,22.8,9.6c7.7,3.7,15.4,7.4,22.5,12.2
	c0.8,0.5,1.6,1.1,2.1,1.9c0.6,0.9,0.8,2,0.9,3.1c0.4,2.4,0.7,4.8,1.1,7.1c-9.5-5.1-19.8-8.6-30.4-10.3c-7.4-1.2-14.9-1.6-22.4-1.9
	c-18.6-0.9-37.2-1.7-55.8-2.6c23.5-1.9,47.1-2.6,70.7-2c-0.9-2.1-3.2-3.2-5.3-4.1c-14.2-5.9-28.6-11.4-43.1-16.6
	c-7.4-2.7-14.8-5.2-22.3-7.7c-5.5-1.8-14.8-3-19.1-6.6C50.5-93.2,62.1-88.9,67.4-87.9z"/>
<path class="st1" d="M-242.1,29.6c-0.9-0.1-1.8,0.4-2.2,1.2c-0.4,0.9,0.1,1.9,0.7,2.8c0.4,0.7,0.8,1.3,1.4,1.4
	c0.9,0.1,1.8-1,2.1-2.1C-239.9,31.6-240.7,29.8-242.1,29.6z"/>
<path class="st2" d="M-391.5,64.9c8.1-1.2,16.1-3.1,23.8-5.6c2.8-0.9,5.6-1.9,7.9-3.8c2.5-2,4.2-4.9,5.7-7.8
	c3.7-7,6.8-14.5,7.5-22.3c0.7-7.9-1.2-16.2-6.4-22.1c-6.7-7.5-17.7-10-27.6-8.4c-2.2,0.4-4.5,0.9-6.6,1.8c-6.8,2.8-11.8,9-14.8,15.8
	c-3,6.7-4.2,14.1-5.4,21.4c-0.4,2.2-0.7,4.5,0,6.7c0.9,2.7,3.3,4.6,5.6,6.4c4,3,8.2,6.1,13.1,6.8c8.7,1.1,16.2-5.8,21.8-12.5
	c3.6-4.3,7.1-8.9,8.4-14.3s-0.2-11.9-4.9-15c-4.2-2.7-10-2-14.2,0.6c-4.3,2.7-7.2,6.9-9.7,11.3c-1.9,3.5-3.7,7.2-3.9,11.2
	c-0.1,0.8,0,1.7,0.4,2.5c1,1.7,4,1.2,5.4,1c6-0.8,13.4-5.2,15-11.7c0.3-1,0.9-3.4-0.4-4.7c-1.2-1.3-3.3-1-3.7-0.9
	c-4.1,0.6-6,5.5-6.2,6"/>
<path class="st3" d="M54.6,61.2c-3.5-2.6-10.7-7.9-20.2-16.1c0,0-7.8-6.8-8.5-13.8c-0.1-0.5-0.2-1.9,0.7-2.9
	c0.7-0.8,1.5-0.8,2.6-1.1c1.5-0.4,3.8-1.2,5-2.3c2-1.8,2.3-5.9,0.9-8.5c-1.5-2.7-4.2-4.5-7.1-5.5c-5.3-1.9-11.7-1.3-16.1,2.3
	c-4.4,3.6-6.2,10.3-3.6,15.3c2.6,5,9.9,7.1,14.5,3.7c2.2,5.5,5.9,10.2,10,14.4c6.1,6.3,13.2,11.5,20.2,16.7
	c6.9,5.2,13.2,11.1,19.9,16.3C66.3,70.4,59.5,64.9,54.6,61.2z"/>
<path class="st3" d="M66.2,70.9c-2-1.4-6-4-11.8-5.8c-4.6-1.4-6-0.9-10.2-2.8c-2.3-1.1-4.4-2.6-6.7-3.8c-3.9-1.9-8.5-2.5-12.8-1.6
	c-1.1,0.2-2.2,0.6-2.8,1.5c-1.1,1.5-0.2,3.6,1,5.1c4.3,5.5,11.4,8,18.2,10c4.7,1.3,10.1,2.9,17.1,4.3c8.7,1.7,15.6,3,16.3,1.2
	C75.2,77,68.1,72.2,66.2,70.9z"/>
<path class="st3" d="M62.6,68.3c-1.3-2.4-2.6-4.7-3.8-7c-0.9-1.7-1.8-3.3-2.4-5.1c-1.1-3.3-0.9-6.8-0.8-10.2c0.1-2,0.3-4.2,1.7-5.6
	c1.3-1.3,3.4-1.4,5.1-0.7c1.7,0.7,3,2.1,3.9,3.7c3.1,5.2,3.1,10.6,4.3,16.3c1.4,6.6,5.1,18.1,3.8,19.3c-0.6,0.6-1.2,0.8-1.2,0.8
	c-0.8,0.2-1.5,0-1.8-0.1c-2.5-0.8-4.7-4.2-4.7-4.2C65,73,64.2,71.4,62.6,68.3z"/>
<path class="st3" d="M20.4,8.9c1.8,0,3.5,0.2,5.3,0.5c1.9,0.3,3.7,0.7,5.6,1.1c1.1,0.2,2.2,0.5,3,1.2c1.8,1.3,2.4,3.7,2.7,5.9
	c0.2,2.4,0.2,4.9-0.9,7c-1.8,3.3-5.6,4.7-8.7,6.8c-1.2,0.8-2.4,1.7-3.8,2.3c-2.9,1.3-6.3,0.9-9.5,0.5c-1.4-0.2-2.7-0.4-4.1-0.5
	c-0.5-0.1-1.1-0.1-1.6-0.4c-0.5-0.3-1-0.7-1.4-1.1c-2.9-3.3-3.6-8.4-1.9-12.4C7.7,14.1,14.2,9.1,20.4,8.9z"/>
</svg>
