<?xml version="1.0" encoding="utf-8"?>
<!-- Generator: Adobe Illustrator 23.1.1, SVG Export Plug-In . SVG Version: 6.00 Build 0)  -->
<svg version="1.1" id="Layer_1" xmlns="http://www.w3.org/2000/svg" xmlns:xlink="http://www.w3.org/1999/xlink" x="0px" y="0px"
	 viewBox="0 0 43 43" style="enable-background:new 0 0 43 43;" xml:space="preserve">
<style type="text/css">
	.st0{fill:#CDD6B9;}
	.st1{fill:#B0B6A1;stroke:#B0B6A1;stroke-width:0.75;stroke-miterlimit:10;}
	.st2{opacity:0.2;fill:none;stroke:#000000;stroke-miterlimit:10;enable-background:new    ;}
	.st3{fill:#FFFA86;stroke:#FFFA86;stroke-miterlimit:10;}
	.st4{fill:#B0B6A1;}
</style>
<ellipse class="st0" cx="21.7" cy="17.8" rx="12.8" ry="9.1"/>
<line class="st1" x1="21.7" y1="27.6" x2="21.7" y2="43.5"/>
<line class="st2" x1="33.9" y1="51.4" x2="30" y2="67.3"/>
<line class="st2" x1="11.9" y1="53.9" x2="21.9" y2="66.8"/>
<line class="st2" x1="5.3" y1="57.5" x2="18.5" y2="67.2"/>
<line class="st2" x1="-0.6" y1="60.5" x2="8.5" y2="74.1"/>
<line class="st2" x1="38.2" y1="56.8" x2="31.7" y2="71.8"/>
<line class="st2" x1="44.1" y1="57.2" x2="41.8" y2="73.4"/>
<line class="st2" x1="49.1" y1="56.2" x2="46.8" y2="72.4"/>
<ellipse class="st1" cx="21.7" cy="17.8" rx="13.3" ry="9.6"/>
<g>
	<path class="st1" d="M22.2,41.9c-0.1-1.3-0.1-4.1,1.5-6.8c2.4-4.1,8.1-7.5,11.7-5.4c2,1.2,3.3,4,2.7,6.3c-1.4,5-11,5.8-12.5,5.9
		C24.2,42,23,42,22.2,41.9z"/>
	<path class="st1" d="M21.8,42.3c-0.1-1.4-0.1-4.3,1.6-7.2c2.6-4.4,8.6-7.9,12.4-5.7c2.1,1.3,3.5,4.3,2.8,6.7
		c-1.3,5.2-11.6,6.1-13.1,6.2C24,42.4,22.6,42.4,21.8,42.3z"/>
</g>
<g>
	<path class="st1" d="M21.1,41.9c0.1-1.3,0.1-4.1-1.5-6.8c-2.4-4.1-8-7.5-11.6-5.4c-2,1.2-3.3,4-2.7,6.3c1.3,4.9,10.9,5.7,12.4,5.8
		C19,42,20.2,42,21.1,41.9z"/>
	<path class="st1" d="M21.6,42.3c0.1-1.4,0.1-4.3-1.6-7.2c-2.6-4.4-8.6-7.9-12.4-5.7c-2.1,1.3-3.5,4.3-2.8,6.7
		c1.3,5.2,11.6,6.1,13.1,6.2S20.8,42.4,21.6,42.3z"/>
</g>
<path class="st3" d="M86.3,45.9c-0.1-4.7-0.7-10.1-2.5-15.7c-0.3-0.9-0.6-1.8-0.9-2.7c2.1,0,4.3,0,6.4,0c-0.4,1-0.7,2.1-1,3.3
	C86.8,36.2,86.3,41.4,86.3,45.9z"/>
<path class="st0" d="M-77.9-95.3c-2.8-2.1-5.2-4.7-8.1-6.8c-2.8-2.1-6.4-3.6-9.8-2.9c-3.9,0.7-6.7,4-8.8,7.3c-1.8,2.8-3.3,6-3.1,9.3
	c0.2,4.5,3.5,8.5,7.5,10.6c4,2.2,8.5,3,13,3.7c6.4,1,12.8,2.1,19.2,3.1c0.6,0.1,1.3,0.2,1.8,0.7c0.6,0.6,0.6,1.5,0.5,2.3
	c-0.4,7.9-0.2,15.9,0.6,23.8c0.4,3.4,1,7.2,3.7,9.4c0.4,0.3,0.9,0.6,1.4,0.5c0.3-0.1,0.6-0.3,0.8-0.6c5.5-6.3,6.2-15.3,6.7-23.6
	c0.2-3.8,0.4-7.6,0.2-11.3c1.1,2.2,2.7,4.1,4.7,5.5c1.4-2.4,0.2-5.4-1.1-7.8c6,4.6,13.1,9.6,20.5,8c0.8-2.5-0.7-5.3-2.8-7
	s-4.8-2.3-7.3-3.2c-2.5-0.8-5.1-1.9-6.9-3.9c-2.6-3-2.5-7.4-1.8-11.3c1.8-9.4,6.8-18.3,6.4-27.9c-0.1-2.4-0.6-4.9-1.9-6.9
	c-1.3-2-3.5-3.6-5.9-3.7c-3.9-0.2-7,3.5-7.9,7.2c-0.9,3.8-0.2,7.7,0.1,11.5c0.5,7.1-0.4,14.3-2.8,21c-0.7-0.9-0.7-2.2-1.1-3.3
	c-0.4-1.1-1.5-2.2-2.6-1.8c-3.5,1.5,3.5,8.4-3.2,4.7C-69.9-90.8-74.2-92.7-77.9-95.3z"/>
<path class="st4" d="M113.3-43.4c-3.5-2.6-10.7-7.9-20.2-16.1c0,0-7.8-6.8-8.5-13.8c-0.1-0.5-0.2-1.9,0.7-2.9
	c0.7-0.8,1.5-0.8,2.6-1.1c1.5-0.4,3.8-1.2,5-2.3c2-1.8,2.3-5.9,0.9-8.5c-1.5-2.7-4.2-4.5-7.1-5.5c-5.3-1.9-11.7-1.3-16.1,2.3
	c-4.4,3.6-6.2,10.3-3.6,15.3c2.6,5,9.9,7.1,14.5,3.7c2.2,5.5,5.9,10.2,10,14.4c6.1,6.3,13.2,11.5,20.2,16.7
	c6.9,5.2,13.2,11.1,19.9,16.3C124.9-34.2,118.2-39.7,113.3-43.4z"/>
<path class="st4" d="M79.1-95.7c1.8,0,3.5,0.2,5.3,0.5c1.9,0.3,3.7,0.7,5.6,1.1c1.1,0.2,2.2,0.5,3,1.2c1.8,1.3,2.4,3.7,2.7,5.9
	c0.2,2.4,0.2,4.9-0.9,7c-1.8,3.3-5.6,4.7-8.7,6.8c-1.2,0.8-2.4,1.7-3.8,2.3c-2.9,1.3-6.3,0.9-9.5,0.5c-1.4-0.2-2.7-0.4-4.1-0.5
	c-0.5-0.1-1.1-0.1-1.6-0.4c-0.5-0.3-1-0.7-1.4-1.1c-2.9-3.3-3.6-8.4-1.9-12.4C66.4-90.5,72.8-95.5,79.1-95.7z"/>
<path class="st4" d="M64.2-8.9c1.8,0,3.5,0.2,5.3,0.5c1.9,0.3,3.7,0.7,5.6,1.1c1.1,0.2,2.2,0.5,3,1.2c1.8,1.3,2.4,3.7,2.7,5.9
	c0.2,2.4,0.2,4.9-0.9,7c-1.8,3.3-5.6,4.7-8.7,6.8c-1.2,0.8-2.4,1.7-3.8,2.3c-2.9,1.3-6.3,0.9-9.5,0.5c-1.4-0.2-2.7-0.4-4.1-0.5
	c-0.5-0.1-1.1-0.1-1.6-0.4c-0.5-0.3-1-0.7-1.4-1.1C48,11,47.3,5.9,49.1,1.9C51.5-3.7,58-8.8,64.2-8.9z"/>
</svg>
